<svg version="1.1" viewBox="0.0 0.0 57.6010498687664 57.6010498687664" fill="none" stroke="none" stroke-linecap="square" stroke-miterlimit="10" xmlns:xlink="http://www.w3.org/1999/xlink" xmlns="http://www.w3.org/2000/svg"><clipPath id="p.0"><path d="m0 0l57.60105 0l0 57.60105l-57.60105 0l0 -57.60105z" clip-rule="nonzero"/></clipPath><g clip-path="url(#p.0)"><path fill="#000000" fill-opacity="0.0" d="m0 0l57.60105 0l0 57.60105l-57.60105 0z" fill-rule="evenodd"/><path fill="#00ff00" d="m52.801586 31.828949l0 0c0 2.1514816 -1.7441216 3.8956032 -3.895607 3.8956032l-19.156136 0c-1.0331783 0 -2.0240402 -0.4104271 -2.7546082 -1.140995c-0.73056793 -0.73056793 -1.140995 -1.7214279 -1.140995 -2.7546082l0 0l0 0c0 -2.1514835 1.7441216 -3.895605 3.8956032 -3.895605l19.156136 0c2.1514854 0 3.895607 1.7441216 3.895607 3.895605z" fill-rule="evenodd"/><path stroke="#85989a" stroke-width="8.0" stroke-linejoin="round" stroke-linecap="butt" d="m52.801586 31.828949l0 0c0 2.1514816 -1.7441216 3.8956032 -3.895607 3.8956032l-19.156136 0c-1.0331783 0 -2.0240402 -0.4104271 -2.7546082 -1.140995c-0.73056793 -0.73056793 -1.140995 -1.7214279 -1.140995 -2.7546082l0 0l0 0c0 -2.1514835 1.7441216 -3.895605 3.8956032 -3.895605l19.156136 0c2.1514854 0 3.895607 1.7441216 3.895607 3.895605z" fill-rule="evenodd"/><path fill="#00ff00" d="m49.383152 9.824047l0 0c0 2.242859 -1.8181953 4.061055 -4.061054 4.061055l-14.516157 0l0 0c-1.0770588 0 -2.1100044 -0.42786026 -2.871601 -1.189456c-0.7615948 -0.7615957 -1.189455 -1.7945404 -1.189455 -2.8715992l0 0l0 0c0 -2.2428594 1.8181973 -4.0610557 4.061056 -4.0610557l14.516157 0c2.242859 0 4.061054 1.8181963 4.061054 4.0610557z" fill-rule="evenodd"/><path stroke="#85989a" stroke-width="8.0" stroke-linejoin="round" stroke-linecap="butt" d="m49.383152 9.824047l0 0c0 2.242859 -1.8181953 4.061055 -4.061054 4.061055l-14.516157 0l0 0c-1.0770588 0 -2.1100044 -0.42786026 -2.871601 -1.189456c-0.7615948 -0.7615957 -1.189455 -1.7945404 -1.189455 -2.8715992l0 0l0 0c0 -2.2428594 1.8181973 -4.0610557 4.061056 -4.0610557l14.516157 0c2.242859 0 4.061054 1.8181963 4.061054 4.0610557z" fill-rule="evenodd"/><path fill="#00ff00" d="m50.683254 17.269314l0 0c0 2.1514835 -1.7441216 3.895605 -3.895607 3.895605l-14.847057 0l0 0c-1.0331783 0 -2.0240421 -0.410429 -2.7546082 -1.140995c-0.73056793 -0.73056793 -1.1409969 -1.7214317 -1.1409969 -2.75461l0 0l0 0c0 -2.1514826 1.7441216 -3.8956041 3.895605 -3.8956041l14.847057 0c2.1514854 0 3.895607 1.7441216 3.895607 3.8956041z" fill-rule="evenodd"/><path stroke="#85989a" stroke-width="8.0" stroke-linejoin="round" stroke-linecap="butt" d="m50.683254 17.269314l0 0c0 2.1514835 -1.7441216 3.895605 -3.895607 3.895605l-14.847057 0l0 0c-1.0331783 0 -2.0240421 -0.410429 -2.7546082 -1.140995c-0.73056793 -0.73056793 -1.1409969 -1.7214317 -1.1409969 -2.75461l0 0l0 0c0 -2.1514826 1.7441216 -3.8956041 3.895605 -3.8956041l14.847057 0c2.1514854 0 3.895607 1.7441216 3.895607 3.8956041z" fill-rule="evenodd"/><path fill="#00ff00" d="m27.148357 26.639433c1.5695 2.511839 4.654722 6.6857014 5.4540024 10.648989c0.79927826 3.9632912 0.50003433 10.609299 -0.6583328 13.130745c-1.1583672 2.5214462 -5.051977 2.762104 -6.2918777 1.9979401c-1.2399006 -0.764164 -0.6492233 -4.582058 -1.1475258 -6.58292c-0.49830246 -2.000866 -0.6930256 -2.6484604 -1.8422871 -5.4222603c-1.1492596 -2.7738037 -5.1404476 -8.188126 -5.053276 -11.220547c0.08716965 -3.032421 3.9864159 -6.5486603 5.5762997 -6.973984c1.5898819 -0.4253254 2.3934975 1.9102001 3.9629974 4.422037z" fill-rule="evenodd"/><path stroke="#85989a" stroke-width="8.0" stroke-linejoin="round" stroke-linecap="butt" d="m27.148357 26.639433c1.5695 2.511839 4.654722 6.6857014 5.4540024 10.648989c0.79927826 3.9632912 0.50003433 10.609299 -0.6583328 13.130745c-1.1583672 2.5214462 -5.051977 2.762104 -6.2918777 1.9979401c-1.2399006 -0.764164 -0.6492233 -4.582058 -1.1475258 -6.58292c-0.49830246 -2.000866 -0.6930256 -2.6484604 -1.8422871 -5.4222603c-1.1492596 -2.7738037 -5.1404476 -8.188126 -5.053276 -11.220547c0.08716965 -3.032421 3.9864159 -6.5486603 5.5762997 -6.973984c1.5898819 -0.4253254 2.3934975 1.9102001 3.9629974 4.422037z" fill-rule="evenodd"/><path fill="#00ff00" d="m51.83182 24.549131l0 0c0 2.1514835 -1.7441216 3.895605 -3.8956032 3.895605l-16.689346 0l0 0c-1.0331783 0 -2.0240402 -0.410429 -2.7546082 -1.1409969c-0.73056793 -0.730566 -1.1409969 -1.7214298 -1.1409969 -2.7546082l0 0l0 0c0 -2.1514835 1.7441216 -3.895605 3.895605 -3.895605l16.689346 0c2.1514816 0 3.8956032 1.7441216 3.8956032 3.895605z" fill-rule="evenodd"/><path stroke="#85989a" stroke-width="8.0" stroke-linejoin="round" stroke-linecap="butt" d="m51.83182 24.549131l0 0c0 2.1514835 -1.7441216 3.895605 -3.8956032 3.895605l-16.689346 0l0 0c-1.0331783 0 -2.0240402 -0.410429 -2.7546082 -1.1409969c-0.73056793 -0.730566 -1.1409969 -1.7214298 -1.1409969 -2.7546082l0 0l0 0c0 -2.1514835 1.7441216 -3.895605 3.895605 -3.895605l16.689346 0c2.1514816 0 3.8956032 1.7441216 3.8956032 3.895605z" fill-rule="evenodd"/><path fill="#00ff00" d="m35.00582 8.694157l0 0c0.6639366 2.1514835 -0.55247116 4.3984823 -2.7169342 5.018813l-9.585457 2.7471762l0 0c-1.0394096 0.29789352 -2.1629047 0.17315865 -3.1233292 -0.34676743c-0.9604244 -0.5199251 -1.6791058 -1.3924494 -1.997942 -2.4256277l0 0l0 0c-0.6639404 -2.1514835 0.55247116 -4.3984823 2.7169323 -5.018813l9.585457 -2.7471776c2.1644592 -0.6203308 4.4573326 0.6209135 5.121273 2.7723966z" fill-rule="evenodd"/><path stroke="#85989a" stroke-width="8.0" stroke-linejoin="round" stroke-linecap="butt" d="m35.00582 8.694157l0 0c0.6639366 2.1514835 -0.55247116 4.3984823 -2.7169342 5.018813l-9.585457 2.7471762l0 0c-1.0394096 0.29789352 -2.1629047 0.17315865 -3.1233292 -0.34676743c-0.9604244 -0.5199251 -1.6791058 -1.3924494 -1.997942 -2.4256277l0 0l0 0c-0.6639404 -2.1514835 0.55247116 -4.3984823 2.7169323 -5.018813l9.585457 -2.7471776c2.1644592 -0.6203308 4.4573326 0.6209135 5.121273 2.7723966z" fill-rule="evenodd"/><path fill="#00ff00" d="m32.851284 27.980705l0 0c0 4.2768097 -3.4670372 7.743847 -7.743847 7.743847l0 0l0 0c-2.0537968 0 -4.0234756 -0.81586456 -5.475729 -2.2681198c-1.4522533 -1.4522514 -2.2681198 -3.4219303 -2.2681198 -5.475727l0 -9.420107c0 -4.2768097 3.467039 -7.7438498 7.743849 -7.7438498l0 0l0 0c4.2768097 0 7.743847 3.46704 7.743847 7.7438498z" fill-rule="evenodd"/><path stroke="#85989a" stroke-width="8.0" stroke-linejoin="round" stroke-linecap="butt" d="m32.851284 27.980705l0 0c0 4.2768097 -3.4670372 7.743847 -7.743847 7.743847l0 0l0 0c-2.0537968 0 -4.0234756 -0.81586456 -5.475729 -2.2681198c-1.4522533 -1.4522514 -2.2681198 -3.4219303 -2.2681198 -5.475727l0 -9.420107c0 -4.2768097 3.467039 -7.7438498 7.743849 -7.7438498l0 0l0 0c4.2768097 0 7.743847 3.46704 7.743847 7.7438498z" fill-rule="evenodd"/><path fill="#00ff00" d="m32.851284 20.954306l0 0c0 1.1214523 -0.90911484 2.0305672 -2.0305672 2.0305672l-11.426561 0c-0.5385399 0 -1.0550232 -0.21393394 -1.4358273 -0.5947399c-0.38080597 -0.38080406 -0.5947399 -0.89728737 -0.5947399 -1.4358273l0 -8.122029c0 -1.1214523 0.90911674 -2.0305681 2.0305672 -2.0305681l11.426561 0l0 0c1.1214523 0 2.0305672 0.9091158 2.0305672 2.0305681z" fill-rule="evenodd"/><path stroke="#85989a" stroke-width="8.0" stroke-linejoin="round" stroke-linecap="butt" d="m32.851284 20.954306l0 0c0 1.1214523 -0.90911484 2.0305672 -2.0305672 2.0305672l-11.426561 0c-0.5385399 0 -1.0550232 -0.21393394 -1.4358273 -0.5947399c-0.38080597 -0.38080406 -0.5947399 -0.89728737 -0.5947399 -1.4358273l0 -8.122029c0 -1.1214523 0.90911674 -2.0305681 2.0305672 -2.0305681l11.426561 0l0 0c1.1214523 0 2.0305672 0.9091158 2.0305672 2.0305681z" fill-rule="evenodd"/><path fill="#00ff00" d="m4.8006506 29.534225l0 -18.498402c0 -0.4789524 0.19026327 -0.9382887 0.528934 -1.2769594c0.33867073 -0.33867073 0.79800653 -0.5289345 1.2769594 -0.5289345l9.029249 0c1.0204315E-4 0 1.8405914E-4 8.2969666E-5 1.8405914E-4 1.8501282E-4l-1.8405914E-4 22.110004l0 0c0 1.0108948E-4 -8.201599E-5 1.8501282E-4 -1.8405914E-4 1.8501282E-4l-9.029066 -1.8501282E-4l0 0c-0.9973674 0 -1.8058934 -0.8085251 -1.8058934 -1.805893z" fill-rule="evenodd"/><path stroke="#85989a" stroke-width="8.0" stroke-linejoin="round" stroke-linecap="butt" d="m4.8006506 29.534225l0 -18.498402c0 -0.4789524 0.19026327 -0.9382887 0.528934 -1.2769594c0.33867073 -0.33867073 0.79800653 -0.5289345 1.2769594 -0.5289345l9.029249 0c1.0204315E-4 0 1.8405914E-4 8.2969666E-5 1.8405914E-4 1.8501282E-4l-1.8405914E-4 22.110004l0 0c0 1.0108948E-4 -8.201599E-5 1.8501282E-4 -1.8405914E-4 1.8501282E-4l-9.029066 -1.8501282E-4l0 0c-0.9973674 0 -1.8058934 -0.8085251 -1.8058934 -1.805893z" fill-rule="evenodd"/><path fill="#ffffff" d="m52.801586 31.828949l0 0c0 2.1514816 -1.7441216 3.8956032 -3.895607 3.8956032l-19.156136 0c-1.0331783 0 -2.0240402 -0.4104271 -2.7546082 -1.140995c-0.73056793 -0.73056793 -1.140995 -1.7214279 -1.140995 -2.7546082l0 0l0 0c0 -2.1514835 1.7441216 -3.895605 3.8956032 -3.895605l19.156136 0c2.1514854 0 3.895607 1.7441216 3.895607 3.895605z" fill-rule="evenodd"/><path fill="#ffffff" d="m49.383152 9.824047l0 0c0 2.242859 -1.8181953 4.061055 -4.061054 4.061055l-14.516157 0l0 0c-1.0770588 0 -2.1100044 -0.42786026 -2.871601 -1.189456c-0.7615948 -0.7615957 -1.189455 -1.7945404 -1.189455 -2.8715992l0 0l0 0c0 -2.2428594 1.8181973 -4.0610557 4.061056 -4.0610557l14.516157 0c2.242859 0 4.061054 1.8181963 4.061054 4.0610557z" fill-rule="evenodd"/><path fill="#ffffff" d="m50.683254 17.269314l0 0c0 2.1514835 -1.7441216 3.895605 -3.895607 3.895605l-14.847057 0l0 0c-1.0331783 0 -2.0240421 -0.410429 -2.7546082 -1.140995c-0.73056793 -0.73056793 -1.1409969 -1.7214317 -1.1409969 -2.75461l0 0l0 0c0 -2.1514826 1.7441216 -3.8956041 3.895605 -3.8956041l14.847057 0c2.1514854 0 3.895607 1.7441216 3.895607 3.8956041z" fill-rule="evenodd"/><path fill="#ffffff" d="m27.148357 26.639433c1.5695 2.511839 4.654722 6.6857014 5.4540024 10.648989c0.79927826 3.9632912 0.50003433 10.609299 -0.6583328 13.130745c-1.1583672 2.5214462 -5.051977 2.762104 -6.2918777 1.9979401c-1.2399006 -0.764164 -0.6492233 -4.582058 -1.1475258 -6.58292c-0.49830246 -2.000866 -0.6930256 -2.6484604 -1.8422871 -5.4222603c-1.1492596 -2.7738037 -5.1404476 -8.188126 -5.053276 -11.220547c0.08716965 -3.032421 3.9864159 -6.5486603 5.5762997 -6.973984c1.5898819 -0.4253254 2.3934975 1.9102001 3.9629974 4.422037z" fill-rule="evenodd"/><path fill="#ffffff" d="m51.83182 24.549131l0 0c0 2.1514835 -1.7441216 3.895605 -3.8956032 3.895605l-16.689346 0l0 0c-1.0331783 0 -2.0240402 -0.410429 -2.7546082 -1.1409969c-0.73056793 -0.730566 -1.1409969 -1.7214298 -1.1409969 -2.7546082l0 0l0 0c0 -2.1514835 1.7441216 -3.895605 3.895605 -3.895605l16.689346 0c2.1514816 0 3.8956032 1.7441216 3.8956032 3.895605z" fill-rule="evenodd"/><path fill="#ffffff" d="m35.00582 8.694157l0 0c0.6639366 2.1514835 -0.55247116 4.3984823 -2.7169342 5.018813l-9.585457 2.7471762l0 0c-1.0394096 0.29789352 -2.1629047 0.17315865 -3.1233292 -0.34676743c-0.9604244 -0.5199251 -1.6791058 -1.3924494 -1.997942 -2.4256277l0 0l0 0c-0.6639404 -2.1514835 0.55247116 -4.3984823 2.7169323 -5.018813l9.585457 -2.7471776c2.1644592 -0.6203308 4.4573326 0.6209135 5.121273 2.7723966z" fill-rule="evenodd"/><path fill="#ffffff" d="m32.851284 27.980705l0 0c0 4.2768097 -3.4670372 7.743847 -7.743847 7.743847l0 0l0 0c-2.0537968 0 -4.0234756 -0.81586456 -5.475729 -2.2681198c-1.4522533 -1.4522514 -2.2681198 -3.4219303 -2.2681198 -5.475727l0 -9.420107c0 -4.2768097 3.467039 -7.7438498 7.743849 -7.7438498l0 0l0 0c4.2768097 0 7.743847 3.46704 7.743847 7.7438498z" fill-rule="evenodd"/><path fill="#ffffff" d="m32.851284 20.954306l0 0c0 1.1214523 -0.90911484 2.0305672 -2.0305672 2.0305672l-11.426561 0c-0.5385399 0 -1.0550232 -0.21393394 -1.4358273 -0.5947399c-0.38080597 -0.38080406 -0.5947399 -0.89728737 -0.5947399 -1.4358273l0 -8.122029c0 -1.1214523 0.90911674 -2.0305681 2.0305672 -2.0305681l11.426561 0l0 0c1.1214523 0 2.0305672 0.9091158 2.0305672 2.0305681z" fill-rule="evenodd"/><path fill="#ffffff" d="m4.8006506 29.534225l0 -18.498402c0 -0.4789524 0.19026327 -0.9382887 0.528934 -1.2769594c0.33867073 -0.33867073 0.79800653 -0.5289345 1.2769594 -0.5289345l9.029249 0c1.0204315E-4 0 1.8405914E-4 8.2969666E-5 1.8405914E-4 1.8501282E-4l-1.8405914E-4 22.110004l0 0c0 1.0108948E-4 -8.201599E-5 1.8501282E-4 -1.8405914E-4 1.8501282E-4l-9.029066 -1.8501282E-4l0 0c-0.9973674 0 -1.8058934 -0.8085251 -1.8058934 -1.805893z" fill-rule="evenodd"/><path stroke="#85989a" stroke-width="1.0" stroke-linejoin="round" stroke-linecap="butt" d="m4.8006506 29.534225l0 -18.498402c0 -0.4789524 0.19026327 -0.9382887 0.528934 -1.2769594c0.33867073 -0.33867073 0.79800653 -0.5289345 1.2769594 -0.5289345l9.029249 0c1.0204315E-4 0 1.8405914E-4 8.2969666E-5 1.8405914E-4 1.8501282E-4l-1.8405914E-4 22.110004l0 0c0 1.0108948E-4 -8.201599E-5 1.8501282E-4 -1.8405914E-4 1.8501282E-4l-9.029066 -1.8501282E-4l0 0c-0.9973674 0 -1.8058934 -0.8085251 -1.8058934 -1.805893z" fill-rule="evenodd"/></g></svg>